<svg xmlns="http://www.w3.org/2000/svg" xmlns:xlink="http://www.w3.org/1999/xlink" viewBox="0 0 24 24"><path d="M11 0L11 3.03125C6.796875 3.484375 3.484375 6.796875 3.03125 11L0 11L0 13L3.03125 13C3.484375 17.203125 6.796875 20.515625 11 20.96875L11 24L13 24L13 20.96875C17.203125 20.515625 20.515625 17.203125 20.96875 13L24 13L24 11L20.96875 11C20.515625 6.796875 17.203125 3.484375 13 3.03125L13 0 Z M 12 4.5C16.101563 4.5 19.5 7.898438 19.5 12C19.5 16.101563 16.101563 19.5 12 19.5C7.898438 19.5 4.5 16.101563 4.5 12C4.5 7.898438 7.898438 4.5 12 4.5Z"/></svg>