<?xml version="1.0" encoding="utf-8"?>
<svg xmlns="http://www.w3.org/2000/svg" viewBox="0 0 24 24" width="480" height="480">
  <path d="M2 2C0.894531 2 0 2.894531 0 4C0 4.738281 0.402344 5.371094 1 5.71875L1 18.28125C0.402344 18.628906 0 19.261719 0 20C0 21.105469 0.894531 22 2 22C2.738281 22 3.371094 21.597656 3.71875 21L20.28125 21C20.628906 21.597656 21.261719 22 22 22C23.105469 22 24 21.105469 24 20C24 19.261719 23.597656 18.628906 23 18.28125L23 5.71875C23.597656 5.371094 24 4.738281 24 4C24 2.894531 23.105469 2 22 2C21.261719 2 20.628906 2.402344 20.28125 3L3.71875 3C3.371094 2.402344 2.738281 2 2 2 Z M 3.71875 5L20.28125 5C20.457031 5.300781 20.699219 5.542969 21 5.71875L21 18.28125C20.699219 18.457031 20.457031 18.699219 20.28125 19L3.71875 19C3.542969 18.699219 3.300781 18.457031 3 18.28125L3 5.71875C3.300781 5.542969 3.542969 5.300781 3.71875 5Z" />
</svg>