<svg xmlns="http://www.w3.org/2000/svg" xmlns:xlink="http://www.w3.org/1999/xlink" viewBox="0 0 24 24"><path d="M17 1.09375C13.515625 1.09375 10.609375 3.683594 10.09375 7.03125C9.902344 7.015625 9.699219 7 9.5 7C5.808594 7 2.703125 9.707031 2.09375 13.25C0.851563 14.261719 0 15.75 0 17.5C0 20.535156 2.464844 23 5.5 23L17.5 23C20.535156 23 23 20.535156 23 17.5C23 15.9375 22.332031 14.535156 21.28125 13.53125C22.777344 12.347656 23.816406 10.597656 24 8.59375L24.15625 6.96875L22.625 7.5625C22.230469 7.71875 21.867188 7.8125 21.5 7.8125C19.535156 7.8125 18 6.277344 18 4.3125C18 3.679688 18.179688 3.042969 18.4375 2.65625L19.46875 1.09375 Z M 16.3125 3.25C16.242188 3.613281 16 3.941406 16 4.3125C16 7.335938 18.449219 9.796875 21.46875 9.8125C21.035156 10.851563 20.382813 11.796875 19.46875 12.375C18.851563 12.136719 18.199219 12 17.5 12C17.148438 12 16.855469 12.125 16.53125 12.1875C15.796875 10.019531 14.179688 8.265625 12.0625 7.46875C12.351563 5.265625 14.105469 3.570313 16.3125 3.25 Z M 9.5 9C12.222656 9 14.394531 10.949219 14.90625 13.5L15.15625 14.6875L16.28125 14.21875C16.675781 14.0625 17.011719 14 17.5 14C17.96875 14 18.410156 14.089844 18.8125 14.25C18.824219 14.261719 18.832031 14.269531 18.84375 14.28125C18.851563 14.285156 18.867188 14.277344 18.875 14.28125C18.925781 14.316406 18.976563 14.347656 19.03125 14.375C19.089844 14.414063 19.152344 14.445313 19.21875 14.46875C19.226563 14.472656 19.242188 14.464844 19.25 14.46875C19.269531 14.480469 19.292969 14.492188 19.3125 14.5C20.328125 15.105469 21 16.203125 21 17.5C21 19.464844 19.464844 21 17.5 21L5.5 21C3.535156 21 2 19.464844 2 17.5C2 16.234375 2.640625 15.144531 3.5625 14.53125L3.9375 14.28125L4 13.8125C4.335938 11.117188 6.703125 9 9.5 9Z"/></svg>