<svg xmlns="http://www.w3.org/2000/svg" xmlns:xlink="http://www.w3.org/1999/xlink" viewBox="0 0 24 24"><path d="M11.875 0.1875C11.371094 0.25 10.996094 0.679688 11 1.1875L11 3.1875C10.996094 3.546875 11.183594 3.882813 11.496094 4.066406C11.808594 4.246094 12.191406 4.246094 12.503906 4.066406C12.816406 3.882813 13.003906 3.546875 13 3.1875L13 1.1875C13.003906 0.898438 12.878906 0.625 12.664063 0.433594C12.449219 0.242188 12.160156 0.152344 11.875 0.1875 Z M 4 3.375C3.625 3.441406 3.324219 3.714844 3.21875 4.078125C3.113281 4.445313 3.222656 4.835938 3.5 5.09375L4.90625 6.5C5.148438 6.796875 5.535156 6.933594 5.910156 6.847656C6.28125 6.761719 6.574219 6.46875 6.660156 6.097656C6.746094 5.722656 6.609375 5.335938 6.3125 5.09375L4.90625 3.6875C4.71875 3.488281 4.460938 3.378906 4.1875 3.375C4.15625 3.375 4.125 3.375 4.09375 3.375C4.0625 3.375 4.03125 3.375 4 3.375 Z M 19.6875 3.375C19.460938 3.40625 19.25 3.519531 19.09375 3.6875L17.6875 5.09375C17.390625 5.335938 17.253906 5.722656 17.339844 6.097656C17.425781 6.46875 17.71875 6.761719 18.089844 6.847656C18.464844 6.933594 18.851563 6.796875 19.09375 6.5L20.5 5.09375C20.796875 4.808594 20.886719 4.367188 20.726563 3.988281C20.570313 3.609375 20.191406 3.367188 19.78125 3.375C19.75 3.375 19.71875 3.375 19.6875 3.375 Z M 12 5.1875C8.15625 5.1875 5 8.34375 5 12.1875C5 16.03125 8.15625 19.1875 12 19.1875C15.84375 19.1875 19 16.03125 19 12.1875C19 8.34375 15.84375 5.1875 12 5.1875 Z M 12 7.1875C14.753906 7.1875 17 9.433594 17 12.1875C17 14.941406 14.753906 17.1875 12 17.1875C9.246094 17.1875 7 14.941406 7 12.1875C7 9.433594 9.246094 7.1875 12 7.1875 Z M 0.8125 11.1875C0.261719 11.238281 -0.144531 11.730469 -0.09375 12.28125C-0.0429688 12.832031 0.449219 13.238281 1 13.1875L3 13.1875C3.359375 13.191406 3.695313 13.003906 3.878906 12.691406C4.058594 12.378906 4.058594 11.996094 3.878906 11.683594C3.695313 11.371094 3.359375 11.183594 3 11.1875L1 11.1875C0.96875 11.1875 0.9375 11.1875 0.90625 11.1875C0.875 11.1875 0.84375 11.1875 0.8125 11.1875 Z M 20.8125 11.1875C20.261719 11.238281 19.855469 11.730469 19.90625 12.28125C19.957031 12.832031 20.449219 13.238281 21 13.1875L23 13.1875C23.359375 13.191406 23.695313 13.003906 23.878906 12.691406C24.058594 12.378906 24.058594 11.996094 23.878906 11.683594C23.695313 11.371094 23.359375 11.183594 23 11.1875L21 11.1875C20.96875 11.1875 20.9375 11.1875 20.90625 11.1875C20.875 11.1875 20.84375 11.1875 20.8125 11.1875 Z M 5.46875 17.59375C5.25 17.632813 5.054688 17.742188 4.90625 17.90625L3.5 19.28125C3.101563 19.667969 3.097656 20.304688 3.484375 20.703125C3.871094 21.101563 4.507813 21.105469 4.90625 20.71875L6.3125 19.3125C6.636719 19.011719 6.722656 18.535156 6.527344 18.140625C6.335938 17.742188 5.902344 17.523438 5.46875 17.59375 Z M 18.1875 17.59375C17.8125 17.660156 17.511719 17.933594 17.40625 18.296875C17.300781 18.664063 17.410156 19.054688 17.6875 19.3125L19.09375 20.71875C19.492188 21.105469 20.128906 21.101563 20.515625 20.703125C20.902344 20.304688 20.898438 19.667969 20.5 19.28125L19.09375 17.90625C18.886719 17.683594 18.585938 17.570313 18.28125 17.59375C18.25 17.59375 18.21875 17.59375 18.1875 17.59375 Z M 11.875 20.1875C11.371094 20.25 10.996094 20.679688 11 21.1875L11 23.1875C10.996094 23.546875 11.183594 23.882813 11.496094 24.066406C11.808594 24.246094 12.191406 24.246094 12.503906 24.066406C12.816406 23.882813 13.003906 23.546875 13 23.1875L13 21.1875C13.003906 20.898438 12.878906 20.625 12.664063 20.433594C12.449219 20.242188 12.160156 20.152344 11.875 20.1875Z"/></svg>