<svg height="32" viewBox="0 0 32 32" width="32" xmlns="http://www.w3.org/2000/svg"><path d="m16 0c-8.828 0-16 7.172-16 16s7.172 16 16 16 16-7.172 16-16-7.172-16-16-16zm0 1c3.828 0 7.307 1.443 9.958 3.802h-19.917c2.74-2.453 6.281-3.802 9.958-3.802zm-9.583 4.802h19.167l-9.583 19.161zm-1.615.24v19.917c-2.453-2.74-3.802-6.281-3.802-9.958 0-3.828 1.443-7.307 3.802-9.958zm22.396 0c2.453 2.74 3.802 6.281 3.802 9.958 0 3.828-1.443 7.307-3.802 9.958zm-21.396.76 9.698 19.396h-9.698zm20.396 0v19.396h-9.698l9.703-19.396zm-20.156 20.396h19.917c-2.74 2.453-6.286 3.802-9.958 3.802s-7.219-1.349-9.958-3.802z"/></svg>